<svg width="21" height="21" viewBox="0 0 21 21" fill="none" xmlns="http://www.w3.org/2000/svg">
<g clip-path="url(#clip0_203_17)">
<path fill-rule="evenodd" clip-rule="evenodd" d="M5.4855 0.7125C7.0965 0.5325 8.778 0.375 10.5 0.375C12.222 0.375 13.9035 0.5325 15.5145 0.7125C16.739 0.852901 17.8796 1.40456 18.7498 2.27728C19.6201 3.15 20.1685 4.29215 20.3055 5.517C20.478 7.1205 20.625 8.79 20.625 10.5C20.625 12.21 20.478 13.8795 20.3055 15.483C20.1685 16.7078 19.6201 17.85 18.7498 18.7227C17.8796 19.5954 16.739 20.1471 15.5145 20.2875C13.9035 20.4675 12.222 20.625 10.5 20.625C8.778 20.625 7.0965 20.4675 5.4855 20.2875C4.26104 20.1471 3.12044 19.5954 2.25017 18.7227C1.3799 17.85 0.831455 16.7078 0.6945 15.483C0.522 13.8795 0.375 12.21 0.375 10.5C0.375 8.79 0.522 7.1205 0.6945 5.517C0.831455 4.29215 1.3799 3.15 2.25017 2.27728C3.12044 1.40456 4.26104 0.852901 5.4855 0.7125ZM12.498 4.323C12.4462 4.09856 12.3136 3.90104 12.1255 3.76812C11.9374 3.6352 11.7069 3.57618 11.4781 3.60233C11.2492 3.62848 11.038 3.73796 10.8847 3.90989C10.7314 4.08182 10.6468 4.30416 10.647 4.5345V13.2C10.647 13.6604 10.5105 14.1105 10.2547 14.4934C9.99886 14.8762 9.63527 15.1746 9.20989 15.3508C8.7845 15.527 8.31642 15.5731 7.86483 15.4833C7.41324 15.3934 6.99843 15.1717 6.67286 14.8461C6.34728 14.5206 6.12556 14.1058 6.03573 13.6542C5.94591 13.2026 5.99201 12.7345 6.16821 12.3091C6.34441 11.8837 6.64279 11.5201 7.02563 11.2643C7.40847 11.0085 7.85857 10.872 8.319 10.872C8.56764 10.872 8.8061 10.7732 8.98191 10.5974C9.15773 10.4216 9.2565 10.1831 9.2565 9.9345C9.2565 9.68586 9.15773 9.4474 8.98191 9.27159C8.8061 9.09577 8.56764 8.997 8.319 8.997C7.48773 8.997 6.67512 9.2435 5.98394 9.70533C5.29276 10.1672 4.75405 10.8236 4.43593 11.5916C4.11782 12.3596 4.03459 13.2047 4.19676 14.02C4.35893 14.8353 4.75923 15.5842 5.34703 16.172C5.93483 16.7598 6.68373 17.1601 7.49903 17.3222C8.31434 17.4844 9.15942 17.4012 9.92742 17.0831C10.6954 16.7649 11.3518 16.2262 11.8137 15.5351C12.2755 14.8439 12.522 14.0313 12.522 13.2V7.965C13.422 8.73 14.583 9.15 15.945 9.15C16.1936 9.15 16.4321 9.05123 16.6079 8.87541C16.7837 8.6996 16.8825 8.46114 16.8825 8.2125C16.8825 7.96386 16.7837 7.7254 16.6079 7.54959C16.4321 7.37377 16.1936 7.275 15.945 7.275C14.955 7.275 14.22 6.969 13.6785 6.4875C13.1265 5.9955 12.717 5.2635 12.498 4.323Z" fill="white"/>
</g>
<defs>
<clipPath id="clip0_203_17">
<rect width="21" height="21" fill="white"/>
</clipPath>
</defs>
</svg>
