<svg width="24" height="24" viewBox="0 0 22 22" fill="none" xmlns="http://www.w3.org/2000/svg">
<g clip-path="url(#clip0_203_19)">
<path fill-rule="evenodd" clip-rule="evenodd" d="M4.58334 0.916748C3.61088 0.916748 2.67825 1.30306 1.99061 1.99069C1.30298 2.67832 0.916672 3.61095 0.916672 4.58341V17.4167C0.916672 18.3892 1.30298 19.3218 1.99061 20.0095C2.67825 20.6971 3.61088 21.0834 4.58334 21.0834H17.4167C18.3891 21.0834 19.3218 20.6971 20.0094 20.0095C20.697 19.3218 21.0833 18.3892 21.0833 17.4167V4.58341C21.0833 3.61095 20.697 2.67832 20.0094 1.99069C19.3218 1.30306 18.3891 0.916748 17.4167 0.916748H4.58334ZM4.27717 4.12508C4.17683 4.16237 4.08657 4.22258 4.01361 4.30092C3.94064 4.37925 3.88697 4.47354 3.85688 4.57627C3.82679 4.67901 3.82111 4.78735 3.84029 4.89267C3.85946 4.99799 3.90297 5.09738 3.96734 5.18291L9.11351 12.0121L3.69142 17.8283L3.65109 17.8751H5.5275L9.955 13.1277L13.3577 17.645C13.4366 17.7496 13.5438 17.8294 13.6666 17.8751H17.7201C17.8203 17.8376 17.9103 17.7772 17.9831 17.6988C18.0559 17.6204 18.1093 17.5261 18.1393 17.4234C18.1692 17.3207 18.1747 17.2124 18.1554 17.1072C18.1361 17.0019 18.0925 16.9027 18.0281 16.8172L12.8819 9.98808L18.3489 4.12508H16.4698L12.0423 8.87341L8.63775 4.35608C8.55894 4.25118 8.45174 4.17102 8.32884 4.12508H4.27717ZM14.2505 16.5441L5.89509 5.45608H7.74584L16.1003 16.5432L14.2505 16.5441Z" fill="white"/>
</g>
<defs>
<clipPath id="clip0_203_19">
<rect width="22" height="22" fill="white"/>
</clipPath>
</defs>
</svg>
